HIERARCHY
ROOT hip
{
  OFFSET 0 0 0
  CHANNELS 6 Xposition Yposition Zposition Zrotation Yrotation Xrotation
  JOINT abdomen
  {
    OFFSET 0 20.6881 -0.73152
    CHANNELS 3 Zrotation Xrotation Yrotation
    JOINT chest
    {
      OFFSET 0 11.7043 -0.48768
      CHANNELS 3 Zrotation Xrotation Yrotation
      JOINT neck
      {
        OFFSET 0 22.1894 -2.19456
        CHANNELS 3 Zrotation Xrotation Yrotation
        JOINT head
        {
          OFFSET -0.24384 7.07133 1.2192
          CHANNELS 3 Zrotation Xrotation Yrotation
          JOINT leftEye
          {
            OFFSET 4.14528 8.04674 8.04672
            CHANNELS 3 Zrotation Xrotation Yrotation
            End Site
            {
              OFFSET 1 0 0
            }
          }
          JOINT rightEye
          {
            OFFSET -3.6576 8.04674 8.04672
            CHANNELS 3 Zrotation Xrotation Yrotation
            End Site
            {
              OFFSET 1 0 0
            }
          }
        }
      }
      JOINT rCollar
      {
        OFFSET -2.68224 19.2634 -4.8768
        CHANNELS 3 Zrotation Xrotation Yrotation
        JOINT rShldr
        {
          OFFSET -8.77824 -1.95073 1.46304
          CHANNELS 3 Zrotation Xrotation Yrotation
          JOINT rForeArm
          {
            OFFSET -28.1742 -1.7115 0.48768
            CHANNELS 3 Zrotation Xrotation Yrotation
            JOINT rHand
            {
              OFFSET -22.5879 0.773209 7.07136
              CHANNELS 3 Zrotation Xrotation Yrotation
              JOINT rThumb1
              {
                OFFSET -1.2192 -0.487915 3.41376
                CHANNELS 3 Zrotation Xrotation Yrotation
                JOINT rThumb2
                {
                  OFFSET -3.37035 -0.52449 3.41376
                  CHANNELS 3 Zrotation Xrotation Yrotation
                  End Site
                  {
                    OFFSET -1.78271 -1.18214 1.43049
                  }
                }
              }
              JOINT rIndex1
              {
                OFFSET -7.75947 0.938293 5.60832
                CHANNELS 3 Zrotation Xrotation Yrotation
                JOINT rIndex2
                {
                  OFFSET -2.54057 -0.884171 1.56538
                  CHANNELS 3 Zrotation Xrotation Yrotation
                  End Site
                  {
                    OFFSET -1.62519 -0.234802 1.16502
                  }
                }
              }
              JOINT rMid1
              {
                OFFSET -8.24714 1.18213 3.41376
                CHANNELS 3 Zrotation Xrotation Yrotation
                JOINT rMid2
                {
                  OFFSET -3.10165 -0.590103 1.0647
                  CHANNELS 3 Zrotation Xrotation Yrotation
                  End Site
                  {
                    OFFSET -2.48547 -0.328903 0.83742
                  }
                }
              }
              JOINT rRing1
              {
                OFFSET -8.82822 0.546677 1.51678
                CHANNELS 3 Zrotation Xrotation Yrotation
                JOINT rRing2
                {
                  OFFSET -2.60934 -0.819778 -0.0198488
                  CHANNELS 3 Zrotation Xrotation Yrotation
                  End Site
                  {
                    OFFSET -2.33842 -0.294052 0.168128
                  }
                }
              }
              JOINT rPinky1
              {
                OFFSET -8.27202 -0.0477905 -0.4584
                CHANNELS 3 Zrotation Xrotation Yrotation
                JOINT rPinky2
                {
                  OFFSET -1.82734 -0.647385 -0.700984
                  CHANNELS 3 Zrotation Xrotation Yrotation
                  End Site
                  {
                    OFFSET -1.69225 -0.51767 -0.607171
                  }
                }
              }
            }
          }
        }
      }
      JOINT lCollar
      {
        OFFSET 2.68224 19.2634 -4.8768
        CHANNELS 3 Zrotation Xrotation Yrotation
        JOINT lShldr
        {
          OFFSET 8.77824 -1.95073 1.46304
          CHANNELS 3 Zrotation Xrotation Yrotation
          JOINT lForeArm
          {
            OFFSET 28.1742 -1.7115 0.48768
            CHANNELS 3 Zrotation Xrotation Yrotation
            JOINT lHand
            {
              OFFSET 22.5879 0.773209 7.07136
              CHANNELS 3 Zrotation Xrotation Yrotation
              JOINT lThumb1
              {
                OFFSET 1.2192 -0.487915 3.41376
                CHANNELS 3 Zrotation Xrotation Yrotation
                JOINT lThumb2
                {
                  OFFSET 3.37035 -0.52449 3.41376
                  CHANNELS 3 Zrotation Xrotation Yrotation
                  End Site
                  {
                    OFFSET 1.78271 -1.18214 1.43049
                  }
                }
              }
              JOINT lIndex1
              {
                OFFSET 7.75947 0.938293 5.60832
                CHANNELS 3 Zrotation Xrotation Yrotation
                JOINT lIndex2
                {
                  OFFSET 2.54057 -0.884171 1.56538
                  CHANNELS 3 Zrotation Xrotation Yrotation
                  End Site
                  {
                    OFFSET 1.62519 -0.234802 1.16502
                  }
                }
              }
              JOINT lMid1
              {
                OFFSET 8.24714 1.18213 3.41376
                CHANNELS 3 Zrotation Xrotation Yrotation
                JOINT lMid2
                {
                  OFFSET 3.10165 -0.590103 1.0647
                  CHANNELS 3 Zrotation Xrotation Yrotation
                  End Site
                  {
                    OFFSET 2.48547 -0.328903 0.83742
                  }
                }
              }
              JOINT lRing1
              {
                OFFSET 8.82822 0.546677 1.51678
                CHANNELS 3 Zrotation Xrotation Yrotation
                JOINT lRing2
                {
                  OFFSET 2.60934 -0.819778 -0.0198488
                  CHANNELS 3 Zrotation Xrotation Yrotation
                  End Site
                  {
                    OFFSET 2.33842 -0.294052 0.168128
                  }
                }
              }
              JOINT lPinky1
              {
                OFFSET 8.27202 -0.0477905 -0.4584
                CHANNELS 3 Zrotation Xrotation Yrotation
                JOINT lPinky2
                {
                  OFFSET 1.82734 -0.647385 -0.700984
                  CHANNELS 3 Zrotation Xrotation Yrotation
                  End Site
                  {
                    OFFSET 1.69225 -0.51767 -0.607171
                  }
                }
              }
            }
          }
        }
      }
    }
  }
  JOINT rButtock
  {
    OFFSET -8.77824 4.35084 1.2192
    CHANNELS 3 Zrotation Xrotation Yrotation
    JOINT rThigh
    {
      OFFSET 0 -1.70687 -2.19456
      CHANNELS 3 Zrotation Xrotation Yrotation
      JOINT rShin
      {
        OFFSET 0 -36.8199 0.73152
        CHANNELS 3 Zrotation Xrotation Yrotation
        JOINT rFoot
        {
          OFFSET 0.73152 -45.1104 -5.12064
          CHANNELS 3 Zrotation Xrotation Yrotation
          End Site
          {
            OFFSET -1.1221 -3.69964 12.103
          }
        }
      }
    }
  }
  JOINT lButtock
  {
    OFFSET 8.77824 4.35084 1.2192
    CHANNELS 3 Zrotation Xrotation Yrotation
    JOINT lThigh
    {
      OFFSET 0 -1.70687 -2.19456
      CHANNELS 3 Zrotation Xrotation Yrotation
      JOINT lShin
      {
        OFFSET 0 -36.8199 0.73152
        CHANNELS 3 Zrotation Xrotation Yrotation
        JOINT lFoot
        {
          OFFSET -0.73152 -45.1104 -5.12064
          CHANNELS 3 Zrotation Xrotation Yrotation
          End Site
          {
            OFFSET 1.1221 -3.69964 12.103
          }
        }
      }
    }
  }
}
MOTION
Frames:	5
Frame Time:	0.03333
-0.0834000005852431 63.269901275634766 0.17099999822676182 -48.4329833984375 69.14568328857422 -41.6350212097168 12.4570951461792 6.650230884552002 -1.7580417394638062 6.5404953956604 -6.516473293304443 0.0803842842578888 -9.877331733703613 24.8048038482666 -20.036197662353516 15.854193687438965 -24.449392318725586 -36.37730026245117 -0.0 0.0 -0.0 -0.0 0.0 -0.0 -0.0 0.0 0.0 63.62299728393555 -25.756914138793945 18.540281295776367 -27.278596878051758 -27.3169002532959 62.9778938293457 -1.9000399112701416 -35.95519256591797 -5.85095739364624 -0.0 0.0 -0.0 -0.0 0.0 -0.0 -0.0 0.0 -0.0 7.730902194976807 5.47491455078125 0.4173222780227661 -0.0 0.0 -0.0 2.905566453933716 0.9650754332542419 0.10300818830728531 -0.0 0.0 -0.0 10.278596878051758 0.7318810820579529 0.026273518800735474 -0.0 0.0 -0.0 2.221662998199463 -0.7334509491920471 -0.20832103490829468 -0.0 0.0 0.0 -115.7239990234375 44.95848083496094 53.56540298461914 27.92428970336914 -40.79640197753906 -85.36089324951172 23.365358352661133 -74.4911117553711 30.429073333740234 0.0 0.0 -0.0 0.0 0.0 -0.0 0.0 0.0 -0.0 -7.730902194976807 5.47491455078125 -0.4173222780227661 0.0 0.0 -0.0 -2.905566453933716 0.9650754332542419 -0.10300818830728531 0.0 0.0 -0.0 -10.278596878051758 0.7318810820579529 -0.026273518800735474 0.0 0.0 -0.0 -2.221662998199463 -0.7334509491920471 0.20832103490829468 -0.0 0.0 -0.0 -2.475515842437744 5.752303123474121 -10.53040885925293 -0.17059952020645142 41.61000061035156 1.8716987371444702 -10.55340576171875 -26.921289443969727 -18.02500343322754 0.0 0.0 0.0 79.2627944946289 -57.067100524902344 61.6614990234375 5.927008628845215 80.89730834960938 -6.029963493347168 -4.240754127502441 -10.155308723449707 -14.762510299682617
-0.06920000014360994 63.224101066589355 0.18299999792361632 -50.055999755859375 68.4854965209961 -42.99501037597656 13.173903465270996 6.55457067489624 -1.6217323541641235 6.375312805175781 -6.57598876953125 0.131818950176239 -9.893417358398438 24.78010368347168 -20.030702590942383 15.843408584594727 -24.50069236755371 -36.3700065612793 -0.0 0.0 -0.0 -0.0 0.0 -0.0 0.0 0.0 0.0 63.70179748535156 -25.585111618041992 18.961971282958984 -27.285207748413086 -27.3411922454834 63.01650619506836 -1.935709834098816 -36.23489761352539 -5.911523818969727 -0.0 0.0 -0.0 -0.0 0.0 -0.0 -0.0 0.0 -0.0 7.730902194976807 5.47491455078125 0.4173222780227661 -0.0 0.0 -0.0 2.905566453933716 0.9650754332542419 0.10300818830728531 -0.0 0.0 -0.0 10.278596878051758 0.7318810820579529 0.026273518800735474 -0.0 0.0 -0.0 2.221662998199463 -0.7334509491920471 -0.20832103490829468 0.0 0.0 0.0 -115.73899841308594 44.878700256347656 53.425498962402344 27.934297561645508 -40.74750518798828 -85.27179718017578 22.873716354370117 -74.26337432861328 29.9185791015625 -0.0 -0.0 -0.0 -0.0 -0.0 -0.0 -0.0 -0.0 -0.0 -7.730902194976807 5.47491455078125 -0.4173222780227661 -0.0 -0.0 -0.0 -2.905566453933716 0.9650754332542419 -0.10300818830728531 -0.0 -0.0 -0.0 -10.278596878051758 0.7318810820579529 -0.026273518800735474 -0.0 -0.0 -0.0 -2.221662998199463 -0.7334509491920471 0.20832103490829468 -0.0 0.0 -0.0 -1.731552004814148 5.573876857757568 -10.372200012207031 -0.16973651945590973 41.5989990234375 1.874815821647644 -10.570314407348633 -26.887392044067383 -18.084796905517578 0.0 0.0 0.0 80.56439208984375 -56.9995002746582 62.30118942260742 6.016505718231201 81.01499938964844 -6.1256208419799805 -4.298730850219727 -10.019804954528809 -15.070602416992188
0.10250000341329724 63.20279836654663 0.1039999959175475 -50.245018005371094 68.5210952758789 -43.117000579833984 13.168193817138672 6.413280963897705 -1.550666093826294 6.357725620269775 -6.541128635406494 0.1444832980632782 -9.902021408081055 24.781503677368164 -20.03170394897461 15.858500480651855 -24.535789489746094 -36.37019729614258 -0.0 0.0 -0.0 -0.0 0.0 -0.0 0.0 0.0 0.0 63.777099609375 -25.427396774291992 19.325407028198242 -27.284408569335938 -27.338394165039062 63.01200485229492 -1.9223030805587769 -36.130393981933594 -5.888777256011963 -0.0 0.0 -0.0 -0.0 0.0 -0.0 -0.0 0.0 -0.0 7.730902194976807 5.47491455078125 0.4173222780227661 -0.0 0.0 -0.0 2.905566453933716 0.9650754332542419 0.10300818830728531 -0.0 0.0 -0.0 10.278596878051758 0.7318810820579529 0.026273518800735474 -0.0 0.0 -0.0 2.221662998199463 -0.7334509491920471 -0.20832103490829468 0.0 0.0 0.0 -115.75099182128906 44.85411834716797 53.34968948364258 27.939796447753906 -40.720306396484375 -85.22250366210938 22.905677795410156 -74.28952026367188 29.95744514465332 -0.0 -0.0 -0.0 -0.0 -0.0 -0.0 -0.0 -0.0 -0.0 -7.730902194976807 5.47491455078125 -0.4173222780227661 -0.0 -0.0 -0.0 -2.905566453933716 0.9650754332542419 -0.10300818830728531 -0.0 -0.0 -0.0 -10.278596878051758 0.7318810820579529 -0.026273518800735474 -0.0 -0.0 -0.0 -2.221662998199463 -0.7334509491920471 0.20832103490829468 -0.0 0.0 -0.0 -1.6319276094436646 5.594210147857666 -10.390189170837402 -0.16846412420272827 41.53889465332031 1.875231146812439 -10.59630012512207 -26.906097412109375 -18.12249755859375 0.0 0.0 0.0 80.79450225830078 -57.033477783203125 62.47521209716797 6.058842182159424 81.07543182373047 -6.169159412384033 -4.338815212249756 -10.026103973388672 -15.189095497131348
0.14177000266499817 63.15000057220459 0.13299999554874375 -49.11800765991211 69.2077865600586 -42.12699890136719 12.439603805541992 6.226410388946533 -1.54470956325531 6.487836837768555 -6.411769390106201 0.11992225795984268 -9.903181076049805 24.808795928955078 -20.039188385009766 15.899697303771973 -24.554603576660156 -36.377899169921875 -0.0 0.0 -0.0 -0.0 0.0 -0.0 0.0 0.0 0.0 63.84960174560547 -25.28418731689453 19.631118774414062 -27.276294708251953 -27.308311462402344 62.96421432495117 -1.860632061958313 -35.641597747802734 -5.783563137054443 -0.0 0.0 -0.0 -0.0 0.0 -0.0 -0.0 0.0 -0.0 7.730902194976807 5.47491455078125 0.4173222780227661 -0.0 0.0 -0.0 2.905566453933716 0.9650754332542419 0.10300818830728531 -0.0 0.0 -0.0 10.278596878051758 0.7318810820579529 0.026273518800735474 -0.0 0.0 -0.0 2.221662998199463 -0.7334509491920471 -0.20832103490829468 0.0 0.0 0.0 -115.75900268554688 44.88490295410156 53.337703704833984 27.940900802612305 -40.71510314941406 -85.21299743652344 23.503822326660156 -74.56465911865234 30.57840919494629 -0.0 -0.0 -0.0 -0.0 -0.0 -0.0 -0.0 -0.0 -0.0 -7.730902194976807 5.47491455078125 -0.4173222780227661 -0.0 -0.0 -0.0 -2.905566453933716 0.9650754332542419 -0.10300818830728531 -0.0 -0.0 -0.0 -10.278596878051758 0.7318810820579529 -0.026273518800735474 -0.0 -0.0 -0.0 -2.221662998199463 -0.7334509491920471 0.20832103490829468 -0.0 0.0 -0.0 -2.176274061203003 5.813226222991943 -10.584589004516602 -0.16625668108463287 41.42970275878906 1.8731881380081177 -10.631511688232422 -26.9774112701416 -18.138202667236328 0.0 0.0 0.0 79.95319366455078 -57.17189407348633 62.18449783325195 6.053608417510986 81.07858276367188 -6.160211086273193 -4.361804008483887 -10.174311637878418 -15.118000030517578
0.18400000408291817 63.13239932060242 0.15899999561952427 -49.395999908447266 69.2726058959961 -42.34500503540039 12.056302070617676 6.09367561340332 -1.471453309059143 6.52382755279541 -6.345944404602051 0.12390429526567459 -9.885327339172363 24.826305389404297 -20.063892364501953 15.944101333618164 -24.56789779663086 -36.41529083251953 -0.0 0.0 -0.0 -0.0 0.0 -0.0 0.0 0.0 0.0 63.89419937133789 -25.22370719909668 19.903690338134766 -27.265697479248047 -27.26909828186035 62.9015998840332 -1.8370429277420044 -35.45119857788086 -5.74302864074707 -0.0 0.0 -0.0 -0.0 0.0 -0.0 -0.0 0.0 -0.0 7.730902194976807 5.47491455078125 0.4173222780227661 -0.0 0.0 -0.0 2.905566453933716 0.9650754332542419 0.10300818830728531 -0.0 0.0 -0.0 10.278596878051758 0.7318810820579529 0.026273518800735474 -0.0 0.0 -0.0 2.221662998199463 -0.7334509491920471 -0.20832103490829468 0.0 0.0 0.0 -115.73199462890625 44.90129089355469 53.316993713378906 27.93800163269043 -40.72959899902344 -85.23919677734375 24.294172286987305 -74.91119384765625 31.397619247436523 -0.0 -0.0 -0.0 -0.0 -0.0 -0.0 -0.0 -0.0 -0.0 -7.730902194976807 5.47491455078125 -0.4173222780227661 -0.0 -0.0 -0.0 -2.905566453933716 0.9650754332542419 -0.10300818830728531 -0.0 -0.0 -0.0 -10.278596878051758 0.7318810820579529 -0.026273518800735474 -0.0 -0.0 -0.0 -2.221662998199463 -0.7334509491920471 0.20832103490829468 -0.0 0.0 -0.0 -2.409499406814575 5.9403767585754395 -10.711709022521973 -0.1649865210056305 41.37369155883789 1.8750591278076172 -10.663076400756836 -26.998104095458984 -18.172191619873047 0.0 0.0 0.0 79.6718978881836 -57.255313873291016 62.23638153076172 6.098674297332764 81.13739776611328 -6.206017971038818 -4.34688663482666 -10.207189559936523 -15.024394989013672
